<svg width="100%" height="100%" viewBox="0 0 1000 1000" version="1.1" xmlns="http://www.w3.org/2000/svg" xmlns:xlink="http://www.w3.org/1999/xlink" xml:space="preserve" xmlns:serif="http://www.serif.com/" style="fill-rule:evenodd;clip-rule:evenodd;stroke-linejoin:round;stroke-miterlimit:2;">
    <g id="Capa-1" serif:id="Capa 1">
        <g transform="matrix(1,0,0,1,0,-1.172)">
            <rect x="0.587" y="1.172" width="998.725" height="998.828" style="fill:rgb(51,38,140);"/>
        </g>
        <g transform="matrix(1,0,0,1,651.732,400.364)">
            <path d="M0,48.246C-2.875,55.688 -6.827,62.169 -11.856,67.685C-16.887,73.21 -22.995,77.529 -30.181,80.646C-37.365,83.767 -45.27,85.325 -53.893,85.325C-62.517,85.325 -70.364,83.767 -77.426,80.646C-84.494,77.529 -90.602,73.21 -95.75,67.685C-100.903,62.169 -104.911,55.688 -107.786,48.246C-110.661,40.81 -112.098,32.89 -112.098,24.485C-112.098,15.845 -110.661,7.807 -107.786,0.365C-104.911,-7.071 -100.903,-13.552 -95.75,-19.074C-90.602,-24.593 -84.494,-28.915 -77.426,-32.036C-70.364,-35.154 -62.517,-36.717 -53.893,-36.717C-45.27,-36.717 -37.365,-35.154 -30.181,-32.036C-22.995,-28.915 -16.887,-24.593 -11.856,-19.074C-6.827,-13.552 -2.875,-7.071 0,0.365C2.875,7.807 4.312,15.845 4.312,24.485C4.312,32.89 2.875,40.81 0,48.246M-207.283,48.246C-210.157,55.688 -214.109,62.169 -219.139,67.685C-224.169,73.21 -230.277,77.529 -237.463,80.646C-244.648,83.767 -252.552,85.325 -261.175,85.325C-269.799,85.325 -277.646,83.767 -284.708,80.646C-291.777,77.529 -297.884,73.21 -303.033,67.685C-308.186,62.169 -312.194,55.688 -315.069,48.246C-317.943,40.81 -319.38,32.89 -319.38,24.485C-319.38,15.845 -317.943,7.807 -315.069,0.365C-312.194,-7.071 -308.186,-13.552 -303.033,-19.074C-297.884,-24.593 -291.777,-28.915 -284.708,-32.036C-277.646,-35.154 -269.799,-36.717 -261.175,-36.717C-252.552,-36.717 -244.648,-35.154 -237.463,-32.036C-230.277,-28.915 -224.169,-24.593 -219.139,-19.074C-214.109,-13.552 -210.157,-7.071 -207.283,0.365C-204.408,7.807 -202.971,15.845 -202.971,24.485C-202.971,32.89 -204.408,40.81 -207.283,48.246M62.335,-25.735C55.986,-41.216 47.185,-54.593 35.929,-65.876C24.666,-77.156 11.317,-85.976 -4.132,-92.336C-19.581,-98.692 -36.288,-101.879 -54.253,-101.879C-72.217,-101.879 -88.806,-98.692 -104.014,-92.336C-119.227,-85.976 -132.459,-77.156 -143.715,-65.876C-148.84,-60.74 -153.43,-55.149 -157.536,-49.145C-161.643,-55.149 -166.231,-60.74 -171.354,-65.876C-182.616,-77.156 -195.965,-85.976 -211.415,-92.336C-226.864,-98.692 -243.57,-101.879 -261.536,-101.879C-279.499,-101.879 -296.088,-98.692 -311.296,-92.336C-326.509,-85.976 -339.742,-77.156 -350.997,-65.876C-362.258,-54.593 -371.06,-41.216 -377.404,-25.735C-383.754,-10.254 -386.926,6.486 -386.926,24.485C-386.926,42.485 -383.754,59.107 -377.404,74.346C-371.06,89.591 -362.258,102.85 -350.997,114.126C-339.742,125.41 -326.509,134.23 -311.296,140.586C-296.088,146.943 -279.499,150.125 -261.536,150.125C-243.57,150.125 -226.864,146.943 -211.415,140.586C-195.965,134.23 -182.616,125.41 -171.354,114.126C-166.231,108.994 -161.643,103.429 -157.536,97.475C-153.43,103.429 -148.84,108.994 -143.715,114.126C-132.459,125.41 -119.227,134.23 -104.014,140.586C-88.806,146.943 -72.217,150.125 -54.253,150.125C-36.288,150.125 -19.581,146.943 -4.132,140.586C11.317,134.23 24.666,125.41 35.929,114.126C47.185,102.85 55.986,89.591 62.335,74.346C68.679,59.107 71.857,42.485 71.857,24.485C71.857,6.486 68.679,-10.254 62.335,-25.735" style="fill:rgb(255,240,49);fill-rule:nonzero;"/>
        </g>
        <g transform="matrix(1,0,0,1,208.911,682.131)">
            <path d="M0,-35.498L0,0L11.809,0C16.695,0 20.648,-1.53 23.669,-4.59C26.688,-7.651 28.199,-12.002 28.199,-17.647C28.199,-23.427 26.688,-27.848 23.669,-30.908C20.648,-33.968 16.695,-35.498 11.809,-35.498L0,-35.498ZM-19.546,-52.431L12.725,-52.431C17.815,-52.431 22.549,-51.666 26.926,-50.136C31.304,-48.606 35.086,-46.378 38.277,-43.454C41.466,-40.53 43.96,-36.909 45.759,-32.592C47.557,-28.272 48.457,-23.291 48.457,-17.647C48.457,-12.07 47.557,-7.124 45.759,-2.806C43.96,1.514 41.466,5.136 38.277,8.058C35.086,10.982 31.304,13.193 26.926,14.689C22.549,16.186 17.815,16.933 12.725,16.933L-19.546,16.933L-19.546,-52.431Z" style="fill:white;fill-rule:nonzero;"/>
        </g>
        <g transform="matrix(1,0,0,1,425.84,650.918)">
            <path d="M0,26.929L0,48.146L-18.731,48.146L-18.731,-21.217L35.631,-21.217L35.631,-4.183L0,-4.183L0,9.893L30.133,9.893L30.133,26.929L0,26.929Z" style="fill:white;fill-rule:nonzero;"/>
        </g>
        <g transform="matrix(1,0,0,1,0,328.763)">
            <rect x="470.632" y="300.937" width="19.546" height="69.363" style="fill:white;"/>
        </g>
        <g transform="matrix(1,0,0,1,523.772,667.85)">
            <path d="M0,-6.937L0,31.213L-19.545,31.213L-19.545,-38.15L-2.646,-38.15L28.912,0.101L28.912,-38.15L48.459,-38.15L48.459,31.213L31.457,31.213L0,-6.937Z" style="fill:white;fill-rule:nonzero;"/>
        </g>
        <g transform="matrix(1,0,0,1,605.823,682.131)">
            <path d="M0,-35.498L0,0L11.81,0C16.695,0 20.648,-1.53 23.669,-4.59C26.687,-7.651 28.199,-12.002 28.199,-17.647C28.199,-23.427 26.687,-27.848 23.669,-30.908C20.648,-33.968 16.695,-35.498 11.81,-35.498L0,-35.498ZM-19.546,-52.431L12.726,-52.431C17.815,-52.431 22.549,-51.666 26.927,-50.136C31.304,-48.606 35.087,-46.378 38.277,-43.454C41.467,-40.53 43.961,-36.909 45.76,-32.592C47.557,-28.272 48.458,-23.291 48.458,-17.647C48.458,-12.07 47.557,-7.124 45.76,-2.806C43.961,1.514 41.467,5.136 38.277,8.058C35.087,10.982 31.304,13.193 26.927,14.689C22.549,16.186 17.815,16.933 12.726,16.933L-19.546,16.933L-19.546,-52.431Z" style="fill:white;fill-rule:nonzero;"/>
        </g>
        <g transform="matrix(1,0,0,1,664.561,629.701)">
            <path d="M0,69.363L0,0L56.398,0L56.398,17.034L18.731,17.034L18.731,26.215L48.966,26.215L48.966,42.229L18.731,42.229L18.731,52.329L56.398,52.329L56.398,69.363L0,69.363Z" style="fill:white;fill-rule:nonzero;"/>
        </g>
        <g transform="matrix(1,0,0,1,751.498,683.15)">
            <path d="M0,-36.517L0,-22.339L13.642,-22.339C16.018,-22.339 17.866,-23.017 19.19,-24.379C20.513,-25.738 21.176,-27.404 21.176,-29.377C21.176,-31.349 20.513,-33.032 19.19,-34.426C17.866,-35.82 16.018,-36.517 13.642,-36.517L0,-36.517ZM-19.545,-53.45L15.576,-53.45C18.9,-53.45 22.107,-52.974 25.196,-52.023C28.284,-51.069 31.015,-49.641 33.392,-47.739C35.766,-45.833 37.683,-43.436 39.144,-40.547C40.602,-37.655 41.331,-34.273 41.331,-30.397C41.331,-25.16 39.754,-20.757 36.598,-17.187C33.442,-13.618 29.386,-11.185 24.433,-9.894C25.925,-8.601 27.385,-7.359 28.811,-6.171C30.236,-4.98 31.66,-3.927 33.086,-3.008C34.512,-2.09 35.937,-1.341 37.362,-0.764C38.786,-0.186 40.212,0.103 41.638,0.103C42.587,0.103 43.725,0.001 45.048,-0.204C46.371,-0.408 47.507,-0.678 48.458,-1.019L50.29,14.281C48.865,15.03 47.135,15.659 45.099,16.169C43.063,16.678 40.856,16.933 38.481,16.933C34.409,16.933 30.607,15.88 27.079,13.771C23.55,11.665 20.241,9.181 17.154,6.326C14.065,3.469 11.181,0.596 8.501,-2.294C5.819,-5.184 3.292,-7.411 0.917,-8.976L0,-8.976L0,15.914L-19.545,15.914L-19.545,-53.45Z" style="fill:white;fill-rule:nonzero;"/>
        </g>
        <g transform="matrix(1,0,0,1,375.548,657.546)">
            <path d="M0,13.67C-0.814,15.779 -1.934,17.615 -3.359,19.178C-4.785,20.744 -6.515,21.967 -8.551,22.851C-10.587,23.735 -12.827,24.176 -15.27,24.176C-17.713,24.176 -19.937,23.735 -21.938,22.851C-23.941,21.967 -25.671,20.744 -27.13,19.178C-28.59,17.615 -29.726,15.779 -30.541,13.67C-31.355,11.564 -31.762,9.319 -31.762,6.938C-31.762,4.489 -31.355,2.212 -30.541,0.104C-29.726,-2.004 -28.59,-3.84 -27.13,-5.404C-25.671,-6.969 -23.941,-8.193 -21.938,-9.077C-19.937,-9.961 -17.713,-10.403 -15.27,-10.403C-12.827,-10.403 -10.587,-9.961 -8.551,-9.077C-6.515,-8.193 -4.785,-6.969 -3.359,-5.404C-1.934,-3.84 -0.814,-2.004 0,0.104C0.814,2.212 1.222,4.489 1.222,6.938C1.222,9.319 0.814,11.564 0,13.67M-58.732,13.67C-59.547,15.779 -60.667,17.615 -62.092,19.178C-63.517,20.744 -65.248,21.967 -67.284,22.851C-69.319,23.735 -71.559,24.176 -74.002,24.176C-76.446,24.176 -78.669,23.735 -80.67,22.851C-82.673,21.967 -84.403,20.744 -85.862,19.178C-87.323,17.615 -88.458,15.779 -89.273,13.67C-90.087,11.564 -90.494,9.319 -90.494,6.938C-90.494,4.489 -90.087,2.212 -89.273,0.104C-88.458,-2.004 -87.323,-3.84 -85.862,-5.404C-84.403,-6.969 -82.673,-8.193 -80.67,-9.077C-78.669,-9.961 -76.446,-10.403 -74.002,-10.403C-71.559,-10.403 -69.319,-9.961 -67.284,-9.077C-65.248,-8.193 -63.517,-6.969 -62.092,-5.404C-60.667,-3.84 -59.547,-2.004 -58.732,0.104C-57.917,2.212 -57.511,4.489 -57.511,6.938C-57.511,9.319 -57.917,11.564 -58.732,13.67M17.663,-7.292C15.864,-11.679 13.37,-15.469 10.18,-18.666C6.989,-21.861 3.207,-24.36 -1.17,-26.163C-5.548,-27.964 -10.282,-28.867 -15.372,-28.867C-20.462,-28.867 -25.163,-27.964 -29.472,-26.163C-33.782,-24.36 -37.531,-21.861 -40.721,-18.666C-42.173,-17.211 -43.473,-15.626 -44.637,-13.925C-45.8,-15.626 -47.101,-17.211 -48.552,-18.666C-51.743,-21.861 -55.525,-24.36 -59.903,-26.163C-64.28,-27.964 -69.014,-28.867 -74.104,-28.867C-79.194,-28.867 -83.895,-27.964 -88.204,-26.163C-92.514,-24.36 -96.264,-21.861 -99.453,-18.666C-102.644,-15.469 -105.138,-11.679 -106.935,-7.292C-108.734,-2.905 -109.633,1.838 -109.633,6.938C-109.633,12.038 -108.734,16.748 -106.935,21.066C-105.138,25.385 -102.644,29.142 -99.453,32.337C-96.264,35.534 -92.514,38.033 -88.204,39.834C-83.895,41.636 -79.194,42.537 -74.104,42.537C-69.014,42.537 -64.28,41.636 -59.903,39.834C-55.525,38.033 -51.743,35.534 -48.552,32.337C-47.101,30.883 -45.8,29.306 -44.637,27.619C-43.473,29.306 -42.173,30.883 -40.721,32.337C-37.531,35.534 -33.782,38.033 -29.472,39.834C-25.163,41.636 -20.462,42.537 -15.372,42.537C-10.282,42.537 -5.548,41.636 -1.17,39.834C3.207,38.033 6.989,35.534 10.18,32.337C13.37,29.142 15.864,25.385 17.663,21.066C19.46,16.748 20.36,12.038 20.36,6.938C20.36,1.838 19.46,-2.905 17.663,-7.292" style="fill:white;fill-rule:nonzero;"/>
        </g>
        <g transform="matrix(0.998002,0,0,1,1.59787,0)">
            <text x="799.816px" y="645.274px" style="font-family:'PlutoRegular', 'Pluto', sans-serif;font-size:25.628px;fill:white;">®</text>
        </g>
    </g>
</svg>
