<svg id="Layer_1" xmlns="http://www.w3.org/2000/svg" version="1.1" viewBox="0 0 1024 1024">
  <defs>
    <style>
      .st0 {
        fill: #f3f1f1;
      }
    </style>
  </defs>
  <path class="st0" d="M785.3,433.4c-8.9-9.8-19.7-17.4-32.5-23-12.7-5.5-26.7-8.3-42-8.3s-29.2,2.8-41.7,8.3c-12.5,5.5-23.3,13.2-32.5,23-9.1,9.8-16.2,21.3-21.3,34.4-5.1,13.2-7.6,27.8-7.6,42.7s2.5,28.9,7.6,42.1c5.1,13.2,12.2,24.7,21.3,34.4,9.1,9.8,19.9,17.4,32.5,23,12.5,5.5,26.4,8.3,41.7,8.3s29.3-2.8,42-8.3c12.7-5.5,23.6-13.2,32.5-23s15.9-21.3,21-34.4,7.6-26.8,7.6-42.1-2.5-29.6-7.6-42.7c-5.1-13.2-12.1-24.7-21-34.4Z"/>
  <path class="st0" d="M418.1,433.4c-8.9-9.8-19.7-17.4-32.5-23-12.7-5.5-26.7-8.3-42-8.3s-29.2,2.8-41.7,8.3c-12.5,5.5-23.3,13.2-32.5,23s-16.2,21.3-21.3,34.4c-5.1,13.2-7.6,27.8-7.6,42.7s2.5,28.9,7.6,42.1c5.1,13.2,12.2,24.7,21.3,34.4,9.1,9.8,19.9,17.4,32.5,23,12.5,5.5,26.4,8.3,41.7,8.3s29.3-2.8,42-8.3c12.7-5.5,23.6-13.2,32.5-23,8.9-9.8,15.9-21.3,21-34.4s7.6-26.8,7.6-42.1-2.5-29.6-7.6-42.7c-5.1-13.2-12.1-24.7-21-34.4Z"/>
  <path class="st0" d="M844.7,0H179.3C80.3,0,0,80.3,0,179.3v665.4C0,943.7,80.3,1024,179.3,1024h665.4c99,0,179.3-80.3,179.3-179.3V179.3c0-99-80.3-179.3-179.3-179.3ZM916.8,598.9c-11.2,27-26.9,50.5-46.8,70.5-20,20-43.6,35.6-71,46.9-27.4,11.3-57,16.9-88.8,16.9s-61.2-5.6-88.2-16.9c-27-11.3-50.4-26.9-70.3-46.9-9.1-9.1-17.2-19-24.5-29.5-7.3,10.6-15.4,20.4-24.5,29.5-20,20-43.6,35.6-71,46.9-27.4,11.3-57,16.9-88.8,16.9s-61.2-5.6-88.2-16.9c-27-11.3-50.4-26.9-70.3-46.9-20-20-35.5-43.5-46.8-70.5-11.2-27-16.9-56.5-16.9-88.4s5.6-61.6,16.9-89c11.2-27.4,26.8-51.1,46.8-71.1,19.9-20,43.4-35.6,70.3-46.9,27-11.3,56.3-16.9,88.2-16.9s61.4,5.6,88.8,16.9c27.4,11.3,51,26.9,71,46.9,9.1,9.1,17.2,19,24.5,29.7,7.3-10.6,15.4-20.5,24.5-29.7,19.9-20,43.4-35.6,70.3-46.9,27-11.3,56.3-16.9,88.2-16.9s61.4,5.6,88.8,16.9c27.4,11.3,51,26.9,71,46.9,19.9,20,35.5,43.7,46.8,71.1h0c11.2,27.4,16.9,57.1,16.9,89s-5.6,61.4-16.9,88.4Z"/>
</svg>
